<svg xmlns="http://www.w3.org/2000/svg" viewBox="0 0 900 750" font-family="'Segoe UI', Arial, sans-serif">
  <defs>
    <linearGradient id="wood" x1="0" y1="0" x2="1" y2="0">
      <stop offset="0%" stop-color="#8D6E63"/>
      <stop offset="50%" stop-color="#BCAAA4"/>
      <stop offset="100%" stop-color="#8D6E63"/>
    </linearGradient>
    <linearGradient id="iron8" x1="0" y1="0" x2="1" y2="0">
      <stop offset="0%" stop-color="#78909C"/>
      <stop offset="50%" stop-color="#B0BEC5"/>
      <stop offset="100%" stop-color="#78909C"/>
    </linearGradient>
    <linearGradient id="feather" x1="0" y1="0" x2="0" y2="1">
      <stop offset="0%" stop-color="#FFF8E1"/>
      <stop offset="100%" stop-color="#FFE0B2"/>
    </linearGradient>
    <marker id="arrowP8" markerWidth="10" markerHeight="7" refX="9" refY="3.5" orient="auto">
      <polygon points="0 0, 10 3.5, 0 7" fill="#7B1FA2"/>
    </marker>
    <marker id="arrowR8" markerWidth="10" markerHeight="7" refX="9" refY="3.5" orient="auto">
      <polygon points="0 0, 10 3.5, 0 7" fill="#D32F2F"/>
    </marker>
    <marker id="arrowB8" markerWidth="10" markerHeight="7" refX="9" refY="3.5" orient="auto">
      <polygon points="0 0, 10 3.5, 0 7" fill="#1565C0"/>
    </marker>
  </defs>

  <!-- Background -->
  <rect width="900" height="750" fill="#FAFAF5"/>

  <!-- Title -->
  <text x="450" y="32" text-anchor="middle" font-size="18" font-weight="bold" fill="#333">FR 630219 — Incubadora Electromagnética</text>
  <text x="450" y="50" text-anchor="middle" font-size="12" fill="#666">Vista en corte — Campo magnético para aves incubadoras</text>

  <!-- === VIEW 1: CLOSED INCUBATOR (Left) === -->
  <g transform="translate(50, 80)">
    <text x="150" y="15" text-anchor="middle" font-size="13" font-weight="bold" fill="#333">VISTA CERRADA (Fig. 2)</text>
    
    <!-- Box A (main body) -->
    <rect x="30" y="40" width="240" height="200" fill="url(#wood)" stroke="#5D4037" stroke-width="3" rx="5"/>
    
    <!-- Iron bars B (interior - vertical) -->
    <line x1="50" y1="60" x2="50" y2="220" stroke="url(#iron8)" stroke-width="3"/>
    <line x1="80" y1="60" x2="80" y2="220" stroke="url(#iron8)" stroke-width="3"/>
    <line x1="110" y1="60" x2="110" y2="220" stroke="url(#iron8)" stroke-width="3"/>
    <line x1="140" y1="60" x2="140" y2="220" stroke="url(#iron8)" stroke-width="3"/>
    <line x1="170" y1="60" x2="170" y2="220" stroke="url(#iron8)" stroke-width="3"/>
    <line x1="200" y1="60" x2="200" y2="220" stroke="url(#iron8)" stroke-width="3"/>
    <line x1="230" y1="60" x2="230" y2="220" stroke="url(#iron8)" stroke-width="3"/>
    <line x1="250" y1="60" x2="250" y2="220" stroke="url(#iron8)" stroke-width="3"/>
    
    <!-- Iron bars B (horizontal) -->
    <line x1="40" y1="80" x2="260" y2="80" stroke="url(#iron8)" stroke-width="2"/>
    <line x1="40" y1="120" x2="260" y2="120" stroke="url(#iron8)" stroke-width="2"/>
    <line x1="40" y1="160" x2="260" y2="160" stroke="url(#iron8)" stroke-width="2"/>
    <line x1="40" y1="200" x2="260" y2="200" stroke="url(#iron8)" stroke-width="2"/>
    
    <!-- Lid C (closed, with iron bars) -->
    <rect x="25" y="30" width="250" height="15" fill="url(#wood)" stroke="#5D4037" stroke-width="2" rx="3"/>
    <!-- Bars on lid -->
    <line x1="50" y1="32" x2="50" y2="42" stroke="url(#iron8)" stroke-width="2"/>
    <line x1="90" y1="32" x2="90" y2="42" stroke="url(#iron8)" stroke-width="2"/>
    <line x1="130" y1="32" x2="130" y2="42" stroke="url(#iron8)" stroke-width="2"/>
    <line x1="170" y1="32" x2="170" y2="42" stroke="url(#iron8)" stroke-width="2"/>
    <line x1="210" y1="32" x2="210" y2="42" stroke="url(#iron8)" stroke-width="2"/>
    <line x1="250" y1="32" x2="250" y2="42" stroke="url(#iron8)" stroke-width="2"/>
    
    <!-- Chicken (simplified) -->
    <ellipse cx="150" cy="160" rx="40" ry="30" fill="url(#feather)" stroke="#FFE0B2" stroke-width="2"/>
    <circle cx="185" cy="140" r="15" fill="url(#feather)" stroke="#FFE0B2" stroke-width="2"/>
    <circle cx="192" cy="137" r="3" fill="#333"/>
    <polygon points="200,140 210,138 200,142" fill="#FF5722"/>
    <!-- Comb -->
    <path d="M 178 125 Q 182 118 186 125 Q 190 118 194 125" fill="#F44336"/>
    <!-- Eggs under chicken -->
    <ellipse cx="130" cy="195" rx="12" ry="8" fill="#FFF9C4" stroke="#F9A825" stroke-width="1"/>
    <ellipse cx="155" cy="198" rx="12" ry="8" fill="#FFF9C4" stroke="#F9A825" stroke-width="1"/>
    <ellipse cx="175" cy="195" rx="12" ry="8" fill="#FFF9C4" stroke="#F9A825" stroke-width="1"/>
    
    <!-- Labels -->
    <line x1="270" y1="140" x2="310" y2="120" stroke="#333" stroke-width="1"/>
    <rect x="295" y="108" width="50" height="18" fill="white" stroke="#333" rx="3"/>
    <text x="320" y="121" text-anchor="middle" font-size="12" font-weight="bold" fill="#333">A — Caja</text>
    
    <line x1="230" y1="160" x2="310" y2="180" stroke="#333" stroke-width="1"/>
    <rect x="295" y="168" width="50" height="18" fill="white" stroke="#333" rx="3"/>
    <text x="320" y="181" text-anchor="middle" font-size="12" font-weight="bold" fill="#333">B — Barras</text>
    
    <line x1="150" y1="30" x2="150" y2="15" stroke="#333" stroke-width="1"/>
    <rect x="130" y="2" width="40" height="16" fill="white" stroke="#333" rx="3"/>
    <text x="150" y="14" text-anchor="middle" font-size="12" font-weight="bold" fill="#333">C — Tapa</text>
    
    <!-- Magnetic field lines -->
    <path d="M 50 150 Q 150 100 250 150" fill="none" stroke="#7B1FA2" stroke-width="1.5" stroke-dasharray="5,3" opacity="0.5"/>
    <path d="M 50 170 Q 150 120 250 170" fill="none" stroke="#7B1FA2" stroke-width="1.5" stroke-dasharray="5,3" opacity="0.4"/>
    <path d="M 50 190 Q 150 140 250 190" fill="none" stroke="#7B1FA2" stroke-width="1.5" stroke-dasharray="5,3" opacity="0.3"/>
    
    <!-- Poles -->
    <rect x="35" y="225" width="20" height="14" fill="#D32F2F" rx="2"/>
    <text x="45" y="235" text-anchor="middle" font-size="9" font-weight="bold" fill="white">S</text>
    <rect x="245" y="225" width="20" height="14" fill="#1565C0" rx="2"/>
    <text x="255" y="235" text-anchor="middle" font-size="9" font-weight="bold" fill="white">N</text>
  </g>

  <!-- === VIEW 2: OPEN INCUBATOR (Right) === -->
  <g transform="translate(500, 80)">
    <text x="150" y="15" text-anchor="middle" font-size="13" font-weight="bold" fill="#333">VISTA ABIERTA (Fig. 3)</text>
    
    <!-- Box A -->
    <rect x="30" y="120" width="240" height="150" fill="url(#wood)" stroke="#5D4037" stroke-width="3" rx="5"/>
    
    <!-- Iron bars B (vertical) -->
    <line x1="50" y1="140" x2="50" y2="250" stroke="url(#iron8)" stroke-width="3"/>
    <line x1="80" y1="140" x2="80" y2="250" stroke="url(#iron8)" stroke-width="3"/>
    <line x1="110" y1="140" x2="110" y2="250" stroke="url(#iron8)" stroke-width="3"/>
    <line x1="140" y1="140" x2="140" y2="250" stroke="url(#iron8)" stroke-width="3"/>
    <line x1="170" y1="140" x2="170" y2="250" stroke="url(#iron8)" stroke-width="3"/>
    <line x1="200" y1="140" x2="200" y2="250" stroke="url(#iron8)" stroke-width="3"/>
    <line x1="230" y1="140" x2="230" y2="250" stroke="url(#iron8)" stroke-width="3"/>
    <line x1="250" y1="140" x2="250" y2="250" stroke="url(#iron8)" stroke-width="3"/>
    
    <!-- Lid C (open, tilted back) -->
    <rect x="30" y="50" width="240" height="15" fill="url(#wood)" stroke="#5D4037" stroke-width="2" rx="3" transform="rotate(-30, 30, 65)"/>
    <!-- Bars on open lid -->
    <line x1="70" y1="55" x2="70" y2="65" stroke="url(#iron8)" stroke-width="2" transform="rotate(-30, 70, 60)"/>
    <line x1="130" y1="55" x2="130" y2="65" stroke="url(#iron8)" stroke-width="2" transform="rotate(-30, 130, 60)"/>
    <line x1="190" y1="55" x2="190" y2="65" stroke="url(#iron8)" stroke-width="2" transform="rotate(-30, 190, 60)"/>
    
    <!-- Movable wall D (down position) -->
    <line x1="30" y1="120" x2="30" y2="270" stroke="#8D6E63" stroke-width="4" stroke-dasharray="8,4"/>
    
    <!-- Chicken (standing, outside) -->
    <ellipse cx="340" cy="200" rx="35" ry="25" fill="url(#feather)" stroke="#FFE0B2" stroke-width="2"/>
    <circle cx="370" cy="180" r="12" fill="url(#feather)" stroke="#FFE0B2" stroke-width="2"/>
    <circle cx="376" cy="178" r="2.5" fill="#333"/>
    <polygon points="382,180 390,178 382,182" fill="#FF5722"/>
    <path d="M 364 168 Q 367 162 370 168 Q 373 162 376 168" fill="#F44336"/>
    <!-- Legs -->
    <line x1="330" y1="225" x2="330" y2="260" stroke="#FF5722" stroke-width="2"/>
    <line x1="350" y1="225" x2="350" y2="260" stroke="#FF5722" stroke-width="2"/>
    <!-- Feet -->
    <line x1="330" y1="260" x2="320" y2="265" stroke="#FF5722" stroke-width="1.5"/>
    <line x1="330" y1="260" x2="340" y2="265" stroke="#FF5722" stroke-width="1.5"/>
    <line x1="350" y1="260" x2="340" y2="265" stroke="#FF5722" stroke-width="1.5"/>
    <line x1="350" y1="260" x2="360" y2="265" stroke="#FF5722" stroke-width="1.5"/>
    
    <!-- Eggs in box -->
    <ellipse cx="100" cy="255" rx="10" ry="7" fill="#FFF9C4" stroke="#F9A825" stroke-width="1"/>
    <ellipse cx="125" cy="257" rx="10" ry="7" fill="#FFF9C4" stroke="#F9A825" stroke-width="1"/>
    <ellipse cx="150" cy="255" rx="10" ry="7" fill="#FFF9C4" stroke="#F9A825" stroke-width="1"/>
    <ellipse cx="175" cy="257" rx="10" ry="7" fill="#FFF9C4" stroke="#F9A825" stroke-width="1"/>
    <ellipse cx="200" cy="255" rx="10" ry="7" fill="#FFF9C4" stroke="#F9A825" stroke-width="1"/>
    
    <!-- Labels -->
    <text x="150" y="115" text-anchor="middle" font-size="10" fill="#5D4037" font-weight="bold">Tapa C (abierta)</text>
    <text x="15" y="200" text-anchor="middle" font-size="10" fill="#5D4037" font-weight="bold" transform="rotate(-90, 15, 200)">Pared D (bajada)</text>
    <text x="350" y="165" text-anchor="middle" font-size="10" fill="#5D4037" font-weight="bold">Pollo (libre)</text>
  </g>

  <!-- === FUNCTION DIAGRAM (Bottom) === -->
  <g transform="translate(50, 380)">
    <text x="400" y="15" text-anchor="middle" font-size="14" font-weight="bold" fill="#333">CÓMO FUNCIONA EL CAMPO MAGNÉTICO</text>
    
    <!-- Diagram of magnetic field creation -->
    <g transform="translate(0, 30)">
      <!-- Iron bar -->
      <rect x="50" y="50" width="200" height="15" fill="url(#iron8)" stroke="#455A64" stroke-width="2"/>
      
      <!-- Tips -->
      <polygon points="50,57 35,50 35,65" fill="#78909C" stroke="#455A64" stroke-width="1"/>
      <polygon points="250,57 265,50 265,65" fill="#78909C" stroke="#455A64" stroke-width="1"/>
      
      <!-- Magnetic field lines around bar -->
      <path d="M 35 57 Q 150 20 265 57" fill="none" stroke="#7B1FA2" stroke-width="1.5"/>
      <path d="M 35 57 Q 150 85 265 57" fill="none" stroke="#7B1FA2" stroke-width="1.5"/>
      <path d="M 35 57 Q 100 30 150 57" fill="none" stroke="#7B1FA2" stroke-width="1" opacity="0.5"/>
      <path d="M 150 57 Q 200 30 265 57" fill="none" stroke="#7B1FA2" stroke-width="1" opacity="0.5"/>
      
      <!-- Arrows -->
      <line x1="150" y1="30" x2="150" y2="20" stroke="#7B1FA2" stroke-width="1.5" marker-end="url(#arrowP8)"/>
      
      <!-- Poles -->
      <rect x="25" y="45" width="20" height="12" fill="#D32F2F" rx="2"/>
      <text x="35" y="54" text-anchor="middle" font-size="8" font-weight="bold" fill="white">S</text>
      <rect x="255" y="45" width="20" height="12" fill="#1565C0" rx="2"/>
      <text x="265" y="54" text-anchor="middle" font-size="8" font-weight="bold" fill="white">N</text>
      
      <text x="150" y="85" text-anchor="middle" font-size="10" fill="#7B1FA2">BARRA DE HIERRO BLANDO EN DIRECCIÓN S→N</text>
      <text x="150" y="100" text-anchor="middle" font-size="9" fill="#666">Se magnetiza instantáneamente por corrientes terrestres</text>
    </g>
    
    <!-- How it applies to incubator -->
    <g transform="translate(350, 30)">
      <!-- Incubator outline -->
      <rect x="30" y="30" width="180" height="120" fill="none" stroke="#8D6E63" stroke-width="2" rx="5"/>
      
      <!-- Multiple bars inside -->
      <line x1="50" y1="40" x2="50" y2="140" stroke="url(#iron8)" stroke-width="2"/>
      <line x1="80" y1="40" x2="80" y2="140" stroke="url(#iron8)" stroke-width="2"/>
      <line x1="110" y1="40" x2="110" y2="140" stroke="url(#iron8)" stroke-width="2"/>
      <line x1="140" y1="40" x2="140" y2="140" stroke="url(#iron8)" stroke-width="2"/>
      <line x1="170" y1="40" x2="170" y2="140" stroke="url(#iron8)" stroke-width="2"/>
      <line x1="200" y1="40" x2="200" y2="140" stroke="url(#iron8)" stroke-width="2"/>
      
      <!-- Chicken in center -->
      <ellipse cx="120" cy="100" rx="25" ry="18" fill="url(#feather)" stroke="#FFE0B2" stroke-width="1.5"/>
      <circle cx="140" cy="90" r="8" fill="url(#feather)" stroke="#FFE0B2" stroke-width="1"/>
      
      <!-- Field lines surrounding chicken -->
      <path d="M 40 100 Q 120 50 200 100" fill="none" stroke="#7B1FA2" stroke-width="1" stroke-dasharray="4,2"/>
      <path d="M 40 100 Q 120 150 200 100" fill="none" stroke="#7B1FA2" stroke-width="1" stroke-dasharray="4,2"/>
      
      <text x="120" y="165" text-anchor="middle" font-size="10" fill="#7B1FA2">CAMPO MAGNÉTICO ENVUELVE AL POLLO</text>
      <text x="120" y="180" text-anchor="middle" font-size="9" fill="#666">Barras en S→N crean campo protector</text>
    </g>
  </g>

  <!-- Benefits diagram -->
  <g transform="translate(50, 600)">
    <text x="400" y="15" text-anchor="middle" font-size="13" font-weight="bold" fill="#333">BENEFICIOS DEL CAMPO MAGNÉTICO</text>
    
    <!-- Benefit 1 -->
    <g transform="translate(0, 30)">
      <rect x="0" y="0" width="180" height="60" fill="#E8F5E9" stroke="#4CAF50" rx="5"/>
      <text x="90" y="18" text-anchor="middle" font-size="11" font-weight="bold" fill="#2E7D32">🐔 POLLO INCUBADOR</text>
      <text x="90" y="33" text-anchor="middle" font-size="9" fill="#333">Mayor vitalidad</text>
      <text x="90" y="45" text-anchor="middle" font-size="9" fill="#333">Menos fatiga</text>
      <text x="90" y="57" text-anchor="middle" font-size="9" fill="#333">Completa la incubación</text>
    </g>
    
    <!-- Benefit 2 -->
    <g transform="translate(210, 30)">
      <rect x="0" y="0" width="180" height="60" fill="#FFF3E0" stroke="#FF9800" rx="5"/>
      <text x="90" y="18" text-anchor="middle" font-size="11" font-weight="bold" fill="#E65100">🥚 HUEVOS</text>
      <text x="90" y="33" text-anchor="middle" font-size="9" fill="#333">Bañados por campo magnético</text>
      <text x="90" y="45" text-anchor="middle" font-size="9" fill="#333">Polluelos más vigorosos</text>
      <text x="90" y="57" text-anchor="middle" font-size="9" fill="#333">Mayor supervivencia</text>
    </g>
    
    <!-- Benefit 3 -->
    <g transform="translate(420, 30)">
      <rect x="0" y="0" width="180" height="60" fill="#F3E5F5" stroke="#7B1FA2" rx="5"/>
      <text x="90" y="18" text-anchor="middle" font-size="11" font-weight="bold" fill="#6A1B9A">⚡ VITALIDAD</text>
      <text x="90" y="33" text-anchor="middle" font-size="9" fill="#333">Campo magnético aumenta</text>
      <text x="90" y="45" text-anchor="middle" font-size="9" fill="#333">vitalidad en proporciones</text>
      <text x="90" y="57" text-anchor="middle" font-size="9" fill="#333">considerables</text>
    </g>
    
    <!-- Benefit 4 -->
    <g transform="translate(630, 30)">
      <rect x="0" y="0" width="180" height="60" fill="#E3F2FD" stroke="#1565C0" rx="5"/>
      <text x="90" y="18" text-anchor="middle" font-size="11" font-weight="bold" fill="#0D47A1">🏠 PROTECCIÓN</text>
      <text x="90" y="33" text-anchor="middle" font-size="9" fill="#333">Tapa C + pared D</text>
      <text x="90" y="45" text-anchor="middle" font-size="9" fill="#333">Protegen contra ratas</text>
      <text x="90" y="57" text-anchor="middle" font-size="9" fill="#333">y otros depredadores</text>
    </g>
  </g>

  <!-- Compass -->
  <g transform="translate(830, 100)">
    <circle cx="0" cy="0" r="25" fill="white" stroke="#333" stroke-width="2"/>
    <line x1="0" y1="-20" x2="0" y2="-5" stroke="#D32F2F" stroke-width="2.5"/>
    <line x1="0" y1="5" x2="0" y2="20" stroke="#1565C0" stroke-width="2.5"/>
    <text x="0" y="-24" text-anchor="middle" font-size="10" font-weight="bold" fill="#D32F2F">N</text>
    <text x="0" y="32" text-anchor="middle" font-size="10" font-weight="bold" fill="#1565C0">S</text>
    <circle cx="0" cy="0" r="2.5" fill="#333"/>
  </g>

</svg>
